<svg width="152" height="46" viewBox="0 0 152 46" fill="none" xmlns="http://www.w3.org/2000/svg">
<path d="M26.1677 6.83114L28.2423 8.50231L30.3168 6.83114L28.2423 4.96704L26.1677 6.83114Z" fill="#0A2C72"/>
<path d="M26.1677 1.90995L28.2423 3.77354L30.3168 1.90995L28.2423 0.0620117L26.1677 1.90995Z" fill="#0A2C72"/>
<path d="M93.4394 3.53527V1.47825C93.4394 1.23179 93.6481 1.10856 94.0656 1.10856H95.2992V0H93.2252C92.5333 0 92.1874 0.369519 92.1874 1.10856V3.53527H91.1501V4.64635H95.7108V3.53527H93.4394Z" fill="#0A2C72"/>
<path d="M15.4722 13.6238H12.9856V11.583C13.0785 11.4509 13.206 11.3466 13.3542 11.2814C13.5024 11.2163 13.6657 11.1927 13.8265 11.2133H15.0601V10.1047H12.9856C12.2934 10.1047 11.9475 10.4743 11.9478 11.2133V13.6238H10.9268V14.747H15.4697L15.4722 13.6238Z" fill="#0A2C72"/>
<path d="M25.9708 19.0229H25.8465L23.1462 19.0133V0.0698242H18.8002V25.746H6.5655C5.46834 25.6281 4.91993 25.0711 4.92027 24.0748V15.6876C4.92027 14.5742 5.74914 14.0173 7.40689 14.017H7.60328V10.1125H4.29455C1.67159 10.1125 0.360107 11.4783 0.360107 14.2099V25.5692C0.360107 28.29 1.67159 29.6506 4.29455 29.6509H23.1452V23.0955H23.271V23.1187H25.2502L25.8434 23.1258V23.1187H30.3153V10.1049H25.9693L25.9708 19.0229Z" fill="#0A2C72"/>
<path d="M48.0078 25.7391H39.7096C38.3262 25.7391 37.6347 24.9945 37.6351 23.5054V10.1047H33.0922V26.1103C33.0922 28.4672 34.6065 29.6456 37.6351 29.6456H52.3518V0.0625H48.0078V25.7391Z" fill="#0A2C72"/>
<path d="M83.8355 6.20068H78.238C75.4835 6.20068 73.9632 7.44325 73.6774 9.92837V6.20068H69.3314V19.0398H66.5042L66.522 6.21735H59.8868C56.7141 6.21668 55.1277 7.95182 55.1277 11.4228V23.1361H61.7451V25.177C61.7451 25.5517 61.4053 25.7391 60.7256 25.7391H55.1277V29.6456H61.5482C64.7193 29.6456 66.305 28.7779 66.3053 27.0426V23.1361H69.0061V23.1205H88.1795V11.4066C88.1795 8.06461 86.7308 6.3293 83.8335 6.20068M61.9613 19.2155L59.6899 19.2317V10.6672C59.6899 10.0029 59.9582 9.67097 60.4947 9.6713C61.0106 9.71357 61.5111 9.86713 61.9613 10.1213V19.2155ZM83.8335 19.0388H73.6774V11.4066C73.6774 10.5386 73.9577 10.1048 74.5183 10.1051H83.8355L83.8335 19.0388Z" fill="#0A2C72"/>
<path d="M95.6931 6.22046H91.1501V23.1362H95.6931V6.22046Z" fill="#0A2C72"/>
<path d="M2.89086 35.4346C2.96989 35.0245 3.20311 34.6598 3.54296 34.4149C3.90086 34.235 4.29953 34.1506 4.7 34.1699H6.10875C6.48054 34.1582 6.84823 34.25 7.17039 34.4351C7.54483 34.7414 7.80254 35.1662 7.90064 35.6386L10.7186 46.0025H8.73544L6.23055 36.8613C6.1842 36.6162 6.09725 36.48 5.96971 36.4527L5.83066 36.4734L4.75227 40.2885H6.62993V42.5329H4.10727L3.11618 46.001H0.00231934L2.89086 35.4346Z" fill="#0A2C72"/>
<path d="M13.2936 41.2081C13.0964 41.2038 12.9077 41.1276 12.7633 40.994C12.5856 40.84 12.4354 40.6571 12.3192 40.4531C12.1873 40.2255 12.085 39.9821 12.0148 39.7289C11.9418 39.4804 11.9039 39.2231 11.9021 38.9642V36.4143C11.9038 36.1553 11.9418 35.8978 12.0148 35.6492C12.0851 35.3959 12.1874 35.1526 12.3192 34.925C12.4356 34.7211 12.5857 34.5382 12.7633 34.3841C12.9078 34.2506 13.0965 34.1745 13.2936 34.1699H21.6436V36.4143H14.6851V38.9642H20.2516C20.4487 38.9689 20.6374 39.0449 20.7824 39.1779C20.9594 39.3324 21.1093 39.5152 21.2259 39.7188C21.3575 39.9467 21.4598 40.1902 21.5304 40.4435C21.6032 40.692 21.6413 40.9493 21.6436 41.2081V43.7581C21.6414 44.0171 21.6033 44.2746 21.5304 44.5232C21.4599 44.7766 21.3576 45.0201 21.2259 45.2479C21.1094 45.4515 20.9595 45.6341 20.7824 45.7883C20.6377 45.9218 20.4488 45.998 20.2516 46.0025H11.9021V43.7581H18.8601V41.2081H13.2936Z" fill="#0A2C72"/>
<path d="M32.8466 43.7581C32.8442 44.0171 32.806 44.2746 32.7329 44.5232C32.6628 44.7765 32.5604 45.0199 32.4284 45.2474C32.3123 45.4513 32.1623 45.6342 31.9849 45.7883C31.8403 45.9217 31.6517 45.9978 31.4546 46.0025H24.4966C24.2994 45.9976 24.1107 45.9215 23.9658 45.7883C23.7885 45.634 23.6386 45.4512 23.5223 45.2474C23.39 45.02 23.2877 44.7766 23.2178 44.5232C23.1446 44.2746 23.1065 44.0171 23.1046 43.7581V36.4143C23.1065 36.1551 23.1446 35.8974 23.2178 35.6487C23.2879 35.3954 23.3902 35.152 23.5223 34.9245C23.6387 34.7209 23.7887 34.5383 23.9658 34.3841C24.1105 34.2505 24.2993 34.1743 24.4966 34.1699H31.4546C31.6517 34.1743 31.8404 34.2505 31.9849 34.3841C32.1622 34.5381 32.3121 34.7208 32.4284 34.9245C32.5603 35.1521 32.6626 35.3954 32.7329 35.6487C32.806 35.8975 32.8442 36.1551 32.8466 36.4143V43.7581ZM25.8881 43.7581H30.0631V36.4138H25.8881V43.7581Z" fill="#0A2C72"/>
<path d="M44.049 43.7581C44.0468 44.0171 44.0087 44.2746 43.9358 44.5232C43.8654 44.7764 43.7631 45.0198 43.6313 45.2474C43.515 45.4512 43.3651 45.634 43.1878 45.7883C43.043 45.9214 42.8545 45.9975 42.6575 46.0025H35.699C35.5019 45.9978 35.3133 45.9217 35.1687 45.7883C34.991 45.6345 34.841 45.4515 34.7252 45.2474C34.5927 45.0201 34.4904 44.7767 34.4207 44.5232C34.3474 44.2746 34.3091 44.0171 34.307 43.7581V36.4143C34.3091 36.1551 34.3474 35.8974 34.4207 35.6487C34.4906 35.3953 34.5929 35.1519 34.7252 34.9245C34.8412 34.7206 34.9911 34.5379 35.1687 34.3841C35.3132 34.2505 35.5019 34.1743 35.699 34.1699H42.6575C42.8546 34.1745 43.0432 34.2506 43.1878 34.3841C43.3649 34.5383 43.5149 34.7209 43.6313 34.9245C43.763 35.1522 43.8653 35.3955 43.9358 35.6487C44.0087 35.8975 44.0468 36.1551 44.049 36.4143V43.7581ZM37.0905 43.7581H41.2655V36.4138H37.0905V43.7581Z" fill="#0A2C72"/>
<path d="M45.4923 43.7581V34.1694H48.2768V43.7581H53.4074V46.0025H46.8838C46.6925 45.9953 46.5104 45.9192 46.3713 45.7883C46.1925 45.6331 46.0397 45.4505 45.9186 45.2474C45.7815 45.0214 45.6762 44.7777 45.6055 44.5232C45.5324 44.2746 45.4943 44.0171 45.4923 43.7581Z" fill="#0A2C72"/>
<path d="M55.1556 34.1699H64.0623V36.4143H61.0007V46.0025H58.2177V36.4143H55.1556V34.1699Z" fill="#0A2C72"/>
<path d="M66.9148 46.0025C66.7177 45.9978 66.5291 45.9217 66.3845 45.7883C66.207 45.6343 66.057 45.4514 65.941 45.2474C65.809 45.0198 65.7067 44.7765 65.6365 44.5232C65.5633 44.2746 65.5252 44.0171 65.5233 43.7581V36.4138C65.5253 36.1548 65.5634 35.8973 65.6365 35.6487C65.7068 35.3954 65.8091 35.1521 65.941 34.9245C66.057 34.7206 66.207 34.5379 66.3845 34.3841C66.529 34.2505 66.7177 34.1743 66.9148 34.1699H74.3102V36.4138H68.3063V38.9642H73.7363V41.2081H68.3063V43.7581H74.3102V46.0025H66.9148Z" fill="#0A2C72"/>
<path d="M77.1607 46.0025C76.9636 45.9978 76.775 45.9217 76.6304 45.7883C76.4528 45.6343 76.3028 45.4514 76.1868 45.2474C76.0549 45.0198 75.9526 44.7765 75.8823 44.5232C75.8092 44.2746 75.7711 44.0171 75.7692 43.7581V36.4138C75.7711 36.1548 75.8092 35.8973 75.8823 35.6487C75.9527 35.3954 76.055 35.1521 76.1868 34.9245C76.3028 34.7206 76.4528 34.5379 76.6304 34.3841C76.7748 34.2505 76.9635 34.1743 77.1607 34.1699H84.554V36.4138H78.5521V43.7581H84.554V46.0025H77.1607Z" fill="#0A2C72"/>
<path d="M92.9731 46.0024V41.2081H88.7981V46.0024H86.0151V34.1699H88.7981V38.9435L92.5382 34.1492H95.7566L92.0165 38.9642H94.3651C94.5621 38.9687 94.7507 39.0447 94.8954 39.1778C95.0726 39.3322 95.2225 39.515 95.339 39.7187C95.4711 39.9464 95.5734 40.1899 95.6434 40.4435C95.7163 40.6919 95.7544 40.9492 95.7566 41.2081V46.0024H92.9731Z" fill="#0A2C72"/>
<path d="M146.603 45.4139H111.554C110.122 45.4139 108.749 44.8478 107.736 43.84C106.723 42.8323 106.155 41.4655 106.155 40.0403V5.4452C106.154 4.73936 106.294 4.04038 106.565 3.3882C106.836 2.73601 107.234 2.14339 107.735 1.64419C108.237 1.14499 108.832 0.74899 109.487 0.478815C110.143 0.208639 110.845 0.06958 111.554 0.0695801H146.603C147.312 0.0695801 148.014 0.208572 148.669 0.478621C149.324 0.74867 149.919 1.14449 150.421 1.64347C150.922 2.14246 151.32 2.73484 151.591 3.3868C151.863 4.03875 152.002 4.73751 152.002 5.44318V40.0383C152.002 40.744 151.863 41.4427 151.591 42.0947C151.32 42.7466 150.922 43.339 150.421 43.838C149.919 44.337 149.324 44.7328 148.669 45.0029C148.014 45.2729 147.312 45.4119 146.603 45.4119" fill="#B9955A"/>
<path d="M141.552 40.6893H135.604L114.832 12.7773V38.4287C114.845 39.0148 114.624 39.5821 114.217 40.006C113.81 40.4299 113.251 40.6756 112.662 40.6893C112.073 40.675 111.515 40.4289 111.108 40.0052C110.702 39.5814 110.481 39.0145 110.494 38.4287V9.31479C110.468 8.14302 110.91 7.0089 111.723 6.16137C112.537 5.31383 113.655 4.82213 114.832 4.79419V4.8048L114.841 4.79419L141.552 40.6893Z" fill="white"/>
<path d="M143.302 32.705L122.532 4.79761H116.583L143.293 40.6876L143.302 40.677V40.6876C144.479 40.6605 145.598 40.1694 146.411 39.3222C147.225 38.4751 147.667 37.3411 147.641 36.1696V18.2968H143.302V32.705Z" fill="white"/>
<path d="M125.54 29.586L114.835 29.3931L110.494 29.3077V23.8376L114.835 23.9179L121.429 24.0397L125.54 29.586Z" fill="white"/>
<path d="M147.639 11.5466H143.302V16.5945H147.639V11.5466Z" fill="white"/>
<path d="M147.639 4.79614H143.302V9.844H147.639V4.79614Z" fill="white"/>
</svg>
