<svg width="428" height="394" viewBox="0 0 428 394" fill="none" xmlns="http://www.w3.org/2000/svg">
<path d="M349.524 24.3879C346.578 24.3879 342.297 23.4862 343.513 18.646C344.438 14.966 348.839 14.9992 351.339 16.5839C347.43 13.0233 354.058 2.78584 362.223 11.0408C362.223 6.40609 368.892 -3.40703 376.399 1.20116C382.522 4.96064 380.368 10.9281 377.649 13.8654C381.166 11.9425 386.665 12.0022 388.42 16.4645C390.175 20.9335 387.516 24.3813 383.32 24.3813H349.531L349.524 24.3879Z" fill="#E3EBFF"/>
<path d="M380.44 222.391C366.006 212.969 366.956 196.904 380.334 181.647C391.657 192.746 396.471 212.485 380.44 222.391Z" fill="#17469D"/>
<path d="M383.791 224.155C380.394 199.642 398.771 185.48 428 185.533C426.63 208.269 409.715 232.125 383.791 224.155Z" fill="#5A88DC"/>
<path d="M383.791 224.155C392.023 217.757 409.882 199.801 422.368 190.008" stroke="#17469D" stroke-width="2" stroke-linecap="round" stroke-linejoin="round"/>
<path d="M180.304 347.364C247.088 227.591 404.326 302.569 397.624 172.51C392.224 67.8138 208.702 86.1777 125.994 96.3482C111.025 98.1878 129.023 110.325 125.994 111.012C189.241 108.422 341.356 124.195 332.94 170.787C324.525 217.379 11.2219 140.804 32.7832 341.782C43.261 377.061 69.6682 392.782 97.944 393.681C129.68 394.696 163.769 377.019 180.304 347.364Z" fill="url(#paint0_linear_281_940)"/>
<path d="M120.35 115.702C49.4997 92.4118 54.6162 7.63328 173.377 44.0968C231.901 62.0695 262.02 54.3307 262.02 54.3307C230.934 62.5982 214.457 60.1243 177.817 52.4911C131.254 42.7964 59.7326 35.4593 120.35 115.702Z" fill="url(#paint1_linear_281_940)"/>
<g style="mix-blend-mode:multiply">
<path d="M176.408 355.538C176.408 350.506 145.976 346.421 108.429 346.421C70.8832 346.421 40.4578 350.506 40.4578 355.538C40.4578 360.571 70.8898 364.655 108.429 364.655C145.969 364.655 176.408 360.577 176.408 355.538Z" fill="#E4EBF6"/>
</g>
<path d="M96.3753 292.403C67.4991 281.648 45.3051 300.021 37.4395 335.361C65.4446 339.87 99.0282 325.9 96.3753 292.403Z" fill="#5A88DC"/>
<path d="M96.3752 292.403C86.3686 300.611 59.6999 317.327 44.4074 329.759Z" fill="#5A88DC"/>
<path d="M96.3752 292.403C86.3686 300.611 59.6999 317.327 44.4074 329.759" stroke="#17469D" stroke-width="2" stroke-linecap="round" stroke-linejoin="round"/>
<path d="M35.2828 169.397L35.7665 169.756L35.8635 170.108C37.2781 169.718 38.6249 169.53 39.6714 169.636C40.7261 169.742 41.3352 170.123 41.5574 170.732L41.5577 170.733C41.7956 171.382 41.5499 172.11 40.7561 172.89C39.9691 173.663 38.7366 174.381 37.3194 174.931C35.9076 175.478 34.3517 175.842 32.9449 175.933C31.521 176.025 30.3287 175.833 29.5776 175.351L29.5441 175.33L29.5076 175.314C29.2266 175.192 28.8848 174.94 28.5023 174.553C28.1245 174.171 27.7289 173.68 27.3366 173.109C26.5519 171.966 25.8017 170.534 25.2493 169.092C24.6945 167.642 24.3539 166.22 24.3558 165.089C24.3576 163.943 24.6997 163.259 25.3221 162.982C25.9655 162.696 26.7272 162.903 27.5787 163.67C28.4214 164.428 29.2358 165.644 29.8843 167.05L30.3414 168.042L30.7935 167.048C31.5119 165.469 32.4132 164.014 33.3508 163.071C34.3112 162.105 35.1503 161.819 35.8398 162.126L35.8401 162.126C36.5685 162.45 36.9284 163.324 36.809 164.744C36.6925 166.128 36.1229 167.822 35.2828 169.397Z" fill="#A2C3FF" stroke="#5A88DC"/>
<path d="M29.2944 175.772C27.3064 179.87 28.0644 194.742 35.0191 207.247" stroke="#5A88DC" stroke-width="2" stroke-linecap="round" stroke-linejoin="round"/>
<path d="M30.7076 174.06L30.4051 174.872L31.2596 174.727C31.6018 174.669 31.9345 174.63 32.2312 174.643C32.4828 174.653 32.6752 174.7 32.8165 174.778L32.8917 174.832C33.0004 174.91 32.9939 174.956 32.9897 174.985C32.9896 174.986 32.9895 174.986 32.9895 174.987C32.9789 175.061 32.9141 175.204 32.7245 175.379C32.3505 175.725 31.6844 176.009 31.0083 175.976C30.2393 175.937 29.5528 175.839 29.249 175.746L29.249 175.746L29.2459 175.745C28.9851 175.666 28.643 175.378 28.3033 174.904C27.9768 174.447 27.7107 173.9 27.5695 173.437C27.5049 173.225 27.4719 173.049 27.4646 172.918C27.5795 172.974 27.7442 173.076 27.9653 173.252L27.9653 173.252L27.9698 173.256C28.2677 173.488 28.4675 173.758 28.6742 174.038C28.6783 174.043 28.6824 174.049 28.6865 174.054L29.4201 175.045L29.584 173.823C29.6584 173.268 29.78 172.729 29.9523 172.362C30.0389 172.178 30.1195 172.079 30.1763 172.034C30.2144 172.004 30.2291 172.004 30.2582 172.011L30.2584 172.011C30.5195 172.068 30.7179 172.287 30.81 172.721C30.9021 173.155 30.8496 173.678 30.7076 174.06Z" fill="#6B67E9" stroke="#5A88DC"/>
<path d="M90.6105 283.564C96.5147 277.126 105.757 256.452 91.6344 243.556C85.2449 237.714 83.2236 236.561 79.7462 236.892C77.4856 237.111 75.6904 238.437 74.1345 237.144C71.2888 234.777 80.1584 224.155 70.6505 214.581C61.1426 205.006 52.7583 210.151 50.2185 207.532C47.6786 204.92 50.378 199.881 44.527 197.169C38.6693 194.457 34.0218 203.959 26.0165 201.512C17.6921 198.966 2.95148 197.799 0.531284 205.676C-1.88891 213.56 4.63365 215.204 6.57513 220.515C8.51661 225.819 3.34377 241.255 15.6442 245.015C27.8715 248.748 32.9513 248.35 33.9353 264.283C34.9194 280.216 48.8488 288.152 56.5948 286.959C64.3407 285.765 62.2397 289.777 58.1772 291.925C54.1147 294.073 60.2317 297.614 65.9365 297.057C71.6412 296.5 83.1903 291.64 90.6039 283.558L90.6105 283.564Z" fill="#17469D"/>
<path d="M92.8245 287.344C74.3606 249.802 41.4951 223.379 14.2147 211.418" stroke="#5A88DC" stroke-width="2" stroke-linecap="round" stroke-linejoin="round"/>
<path d="M35.4313 223.061C35.4779 221.019 36.8077 212.459 39.4473 208.089" stroke="#5A88DC" stroke-width="2" stroke-linecap="round" stroke-linejoin="round"/>
<path d="M30.0125 219.646C26.9274 220.316 20.1987 223.883 18.4567 225.189" stroke="#5A88DC" stroke-width="2" stroke-linecap="round" stroke-linejoin="round"/>
<path d="M56.6945 239.67C56.515 236.587 56.4618 230.368 61.2955 222.531" stroke="#5A88DC" stroke-width="2" stroke-linecap="round" stroke-linejoin="round"/>
<path d="M48.7226 232.795C45.817 232.741 36.7745 236.474 32.9913 238.477" stroke="#5A88DC" stroke-width="2" stroke-linecap="round" stroke-linejoin="round"/>
<path d="M71.342 254.848C67.0801 255.106 62.6187 257.997 59.4471 259.675" stroke="#5A88DC" stroke-width="2" stroke-linecap="round" stroke-linejoin="round"/>
<path d="M78.7157 264.157C77.9311 260.119 79.3407 252.441 81.6412 247.196" stroke="#5A88DC" stroke-width="2" stroke-linecap="round" stroke-linejoin="round"/>
<path d="M355.822 348.284C365.489 338.889 384.778 320.847 416.732 314.548" stroke="#5A88DC" stroke-width="2" stroke-linecap="round" stroke-linejoin="round"/>
<path d="M399.026 319.581C400.476 319.992 404.511 322.067 407.736 326.423" stroke="#5A88DC" stroke-width="2" stroke-linecap="round" stroke-linejoin="round"/>
<path d="M402.603 318.308C404.073 315.742 406.406 311.094 406.965 308.375" stroke="#5A88DC" stroke-width="2" stroke-linecap="round" stroke-linejoin="round"/>
<path d="M387.63 324.64C388.867 322.505 391.154 316.736 391.008 314.661" stroke="#5A88DC" stroke-width="2" stroke-linecap="round" stroke-linejoin="round"/>
<path d="M382.158 327.644C384.352 327.75 389.239 327.378 393.395 332.371" stroke="#5A88DC" stroke-width="2" stroke-linecap="round" stroke-linejoin="round"/>
<path d="M373.448 333.286C374.951 330.455 377.477 326.304 375.489 323.181" stroke="#5A88DC" stroke-width="2" stroke-linecap="round" stroke-linejoin="round"/>
<path d="M369.645 336.104C372.47 335.839 375.895 335.521 380.157 338.995" stroke="#5A88DC" stroke-width="2" stroke-linecap="round" stroke-linejoin="round"/>
<path d="M364.671 340.149C365.855 336.456 366.081 332.457 364.751 330.382" stroke="#5A88DC" stroke-width="2" stroke-linecap="round" stroke-linejoin="round"/>
<path d="M357.424 346.733C360.29 346.017 365.729 345.387 369.193 348.669" stroke="#5A88DC" stroke-width="2" stroke-linecap="round" stroke-linejoin="round"/>
<path d="M421.712 315.947C422.903 314.655 422.816 312.646 421.52 311.459C420.223 310.272 418.208 310.358 417.018 311.651C415.828 312.944 415.915 314.953 417.211 316.14C418.508 317.327 420.522 317.24 421.712 315.947Z" fill="#FBBA05"/>
<path d="M409.039 309.635C409.95 308.647 409.884 307.109 408.893 306.201C407.902 305.292 406.36 305.359 405.449 306.346C404.538 307.334 404.604 308.873 405.595 309.781C406.586 310.689 408.128 310.623 409.039 309.635Z" fill="#FBBA05"/>
<path d="M410.442 329.202C411.353 328.214 411.287 326.676 410.296 325.767C409.305 324.859 407.763 324.925 406.852 325.913C405.941 326.901 406.008 328.439 406.998 329.348C407.989 330.256 409.531 330.19 410.442 329.202Z" fill="#FBBA05"/>
<path d="M392.53 314.867C393.441 313.879 393.375 312.34 392.384 311.432C391.393 310.524 389.851 310.59 388.94 311.578C388.029 312.566 388.095 314.104 389.086 315.012C390.077 315.921 391.619 315.855 392.53 314.867Z" fill="#FBBA05"/>
<path d="M382.869 340.726C383.78 339.738 383.714 338.199 382.723 337.291C381.732 336.383 380.19 336.449 379.279 337.437C378.368 338.425 378.434 339.963 379.425 340.871C380.416 341.78 381.958 341.713 382.869 340.726Z" fill="#FBBA05"/>
<path d="M366.054 330.82C366.965 329.832 366.899 328.294 365.908 327.385C364.917 326.477 363.375 326.543 362.464 327.531C361.553 328.519 361.619 330.057 362.61 330.966C363.601 331.874 365.143 331.808 366.054 330.82Z" fill="#FBBA05"/>
<path d="M395.429 334.632C396.453 333.525 396.38 331.794 395.263 330.78C394.152 329.759 392.417 329.832 391.4 330.946C390.376 332.053 390.449 333.783 391.566 334.798C392.676 335.819 394.412 335.746 395.429 334.632Z" fill="#FBBA05"/>
<path d="M377.391 324.103C378.415 322.996 378.342 321.265 377.225 320.251C376.114 319.23 374.379 319.302 373.362 320.416C372.338 321.524 372.411 323.254 373.528 324.269C374.638 325.29 376.373 325.217 377.391 324.103Z" fill="#FBBA05"/>
<path d="M372.078 351.573C373.102 350.466 373.029 348.735 371.912 347.721C370.802 346.7 369.066 346.772 368.049 347.886C367.025 348.994 367.098 350.724 368.215 351.739C369.326 352.76 371.061 352.687 372.078 351.573Z" fill="#FBBA05"/>
<path d="M247.465 367.042C236.088 359.589 208.05 304.649 230.091 294.001C250.982 283.909 257.611 326.881 258.854 332.464C263.209 311.379 268.907 290.911 282.85 294.63C296.793 298.35 282.85 328.121 282.85 328.121C295.549 311.996 327.198 287.178 341.6 294.624C356.008 302.07 312.338 328.791 312.338 328.791C332.178 317.565 391.48 302.454 332.258 330.979C359.372 322.233 412.251 317.943 353.468 336.184C388.847 333.12 406.799 337.921 407.424 342.887C408.049 347.847 397.67 354.868 351.952 356.022C374.532 359.742 385.861 365.013 380.044 367.029H247.465V367.042Z" fill="#17469D"/>
<path d="M323.229 340.527C323.229 339.512 324.053 338.697 325.064 338.697C326.074 338.697 326.899 339.519 326.899 340.527C326.899 341.535 326.074 342.357 325.064 342.357C324.053 342.357 323.229 341.535 323.229 340.527Z" fill="white"/>
<path d="M260.177 351.301C260.177 349.743 261.44 348.483 263.003 348.483C264.565 348.483 265.829 349.743 265.829 351.301C265.829 352.859 264.565 354.119 263.003 354.119C261.44 354.119 260.177 352.859 260.177 351.301Z" fill="white"/>
<path d="M296.979 330.422C296.979 329.096 298.063 328.015 299.392 328.015C300.722 328.015 301.806 329.089 301.806 330.422C301.806 331.755 300.729 332.829 299.392 332.829C298.056 332.829 296.979 331.748 296.979 330.422Z" fill="white"/>
<path d="M262.604 9.11629L253.828 9.10303C253.828 12.6039 253.894 17.59 253.887 19.2344C253.887 20.8788 259.266 26.8793 263.222 28.3447" stroke="#FCBA06" stroke-width="2" stroke-linecap="round" stroke-linejoin="round"/>
<path d="M300.47 9.14954H309.246C309.246 12.6504 309.166 17.6366 309.166 19.2809C309.166 20.9253 303.774 26.9192 299.811 28.3779" stroke="#ED9F00" stroke-width="2" stroke-linecap="round" stroke-linejoin="round"/>
<path d="M281.91 3.7522C272.747 3.7522 269.569 4.24285 262.98 5.33688C262.98 5.33688 262.98 21.9661 262.98 29.8431C262.98 32.25 275.706 45.2723 278.339 48.1167C278.339 48.1167 278.299 61.9479 278.339 63.579C278.339 63.579 279.928 63.579 281.903 63.579C283.878 63.579 285.467 63.579 285.467 63.579C285.507 61.9479 285.467 48.1167 285.467 48.1167C288.1 45.2723 300.826 32.25 300.826 29.8431C300.826 21.9661 300.826 5.33688 300.826 5.33688C294.243 4.24285 291.058 3.7522 281.896 3.7522H281.91Z" fill="#FCBA06"/>
<path d="M291.866 66.0391H289.326C289.472 65.7872 289.559 65.4755 289.559 65.1374C289.559 64.2754 289.007 63.5792 288.322 63.5792H274.765C274.08 63.5792 273.528 64.2754 273.528 65.1374C273.528 65.4755 273.615 65.7872 273.761 66.0391H271.221C270.184 66.0391 269.339 66.8812 269.339 67.9156V69.2417H293.741V67.9156C293.741 66.8812 292.896 66.0391 291.859 66.0391H291.866Z" fill="#ED9F00"/>
<path d="M291.866 66.0391H289.326C289.472 65.7872 289.559 65.4755 289.559 65.1374C289.559 64.2754 289.007 63.5792 288.322 63.5792H281.547V69.2417H293.747V67.9156C293.747 66.8812 292.903 66.0391 291.866 66.0391Z" fill="#E19100"/>
<path d="M286.947 28.9624H284.235L274.765 16.2718V27.9346C274.771 28.2011 274.67 28.4591 274.484 28.6518C274.299 28.8445 274.044 28.9562 273.775 28.9624C273.507 28.9559 273.252 28.8441 273.067 28.6514C272.882 28.4587 272.781 28.201 272.787 27.9346V14.6975C272.775 14.1647 272.977 13.649 273.347 13.2637C273.718 12.8784 274.228 12.6548 274.765 12.6421V12.6469L274.769 12.6421L286.947 28.9624Z" fill="#E19100"/>
<path d="M287.745 25.3324L278.276 12.6438H275.563L287.741 28.9619L287.745 28.957V28.9619C288.282 28.9495 288.792 28.7262 289.163 28.341C289.534 27.9559 289.735 27.4403 289.723 26.9076V18.7814H287.745V25.3324Z" fill="#E19100"/>
<path d="M279.647 23.9144L274.766 23.8267L272.787 23.7878V21.3008L274.766 21.3373L277.773 21.3926L279.647 23.9144Z" fill="#E19100"/>
<path d="M289.722 15.7122H287.745V18.0073H289.722V15.7122Z" fill="#E19100"/>
<path d="M289.722 12.6431H287.745V14.9382H289.722V12.6431Z" fill="#E19100"/>
<path d="M269.339 69.2417C274.885 68.6383 286.261 66.1386 296.806 68.5388C296.859 70.1235 296.806 70.9722 296.806 70.9722L269.339 69.2417Z" fill="white"/>
<path d="M76.2289 179.691C76.7209 219.242 81.6145 228.597 85.9828 264.939C81.189 281.966 79.6331 328.002 78.7754 341.873H85.9828C93.0439 322.638 113.955 275.369 112.1 179.691H76.2355H76.2289Z" fill="#10377F"/>
<path d="M77.0999 344.498C77.8047 343.577 78.7754 341.873 78.7754 341.873H85.9828C85.2781 343.902 84.8525 345.632 85.1318 346.653C83.2568 347.369 80.5174 345.52 77.0999 344.505V344.498Z" fill="#F8D8D0"/>
<path d="M77.0998 344.498C80.5173 345.513 83.2567 347.369 85.1317 346.647C86.1224 347.363 100.73 352.601 102.219 353.615C103.742 354.656 103.516 356.267 101.907 356.267C99.5531 356.267 80.1583 355.419 80.1583 355.419C79.766 355.843 79.4469 356.267 79.4469 356.267H75.0121C73.6889 353.98 74.048 347.124 77.1065 344.498H77.0998Z" fill="#5A88DC"/>
<path d="M108.609 65.6868C107.233 63.9032 114.872 60.7869 116.894 60.3029C118.915 59.8122 122.412 63.4258 123.835 64.4337C125.258 65.4481 127.372 67.3776 129.719 67.676C129.573 68.8031 129.214 71.5349 127.379 72.8743C124.434 72.2377 119.906 68.9755 116.355 64.4337C114.779 62.4246 109.553 66.9068 108.609 65.6802V65.6868Z" fill="#F0C9C0"/>
<path d="M111.774 63.5052C112.372 68.1068 115.59 81.7125 112.884 86.6257C110.663 90.657 106.096 91.34 98.742 88.8469C91.3816 86.3538 91.0824 73.0266 90.1183 69.1809C88.5891 63.0875 110.524 53.8114 111.774 63.5052Z" fill="#F8D8D0"/>
<path d="M105.344 88.595C105.75 90.9356 107.126 95.5504 107.126 95.5504C106.109 96.9163 99.5066 99.1308 92.2593 95.0332C92.7846 90.7366 92.4322 80.7644 92.4322 80.7644L105.338 88.595H105.344Z" fill="#F8D8D0"/>
<path d="M73.1372 123.717C71.6146 129.313 70.4843 135.764 70.0056 143.137C69.1146 156.902 78.7489 161.504 78.7489 161.504L84.5068 128.06L90.0387 95.9283C85.1651 98.68 77.5188 107.618 73.1372 123.717Z" fill="#ED9F00"/>
<path d="M92.2661 95.0397C87.9443 95.9746 80.0919 103.063 77.4723 121.323C74.8526 139.583 76.2289 179.691 76.2289 179.691H127.146C128.961 168.665 127.558 134.65 123.842 117.53C121.847 108.334 117.253 99.7341 109.38 96.3326C102.598 93.4019 92.2661 95.033 92.2661 95.033V95.0397Z" fill="#FFD03E"/>
<path d="M76.2291 179.691C76.7211 219.242 103.224 238.245 110.67 263.752C110.67 292.701 116.149 335.527 116.634 341.873H123.835C127.751 324.786 142.791 234.386 127.14 179.691H76.2225H76.2291Z" fill="#17469D"/>
<path d="M116.661 344.498C116.641 343.305 116.641 341.873 116.641 341.873H123.842C123.576 343.902 124.414 345.632 124.686 346.653C122.811 347.369 120.072 345.52 116.654 344.505L116.661 344.498Z" fill="#F8D8D0"/>
<path d="M116.661 344.498C120.078 345.513 122.818 347.369 124.693 346.647C125.683 347.363 140.291 352.601 141.78 353.615C143.303 354.656 143.077 356.267 141.468 356.267C139.114 356.267 119.719 355.419 119.719 355.419C119.327 355.843 119.008 356.267 119.008 356.267H114.58C113.257 353.98 113.616 347.124 116.674 344.498H116.661Z" fill="#5A88DC"/>
<path d="M92.2661 58.5986C99.8592 55.1906 109.793 47.897 110.876 48.8452C111.076 49.0176 110.59 49.5348 110.823 49.7469C111.202 50.0851 114.7 44.8271 117.765 46.9157C120.83 49.0043 119.001 59.0296 111.774 63.5052C104.547 67.9807 111.322 72.7149 108.091 75.2146C104.859 77.7143 105.085 86.7119 99.693 86.7914C94.3007 86.871 91.1624 90.1663 91.322 86.7914C91.4816 83.4165 88.4164 76.7131 88.7422 70.9777C89.068 65.249 88.0507 60.4883 92.2661 58.5986Z" fill="#0A2C72"/>
<path d="M106.349 73.4045C106.282 72.0518 106.94 70.9247 107.811 70.8849C108.682 70.8451 109.44 71.906 109.5 73.2586C109.56 74.6112 108.908 75.7384 108.037 75.7782C107.166 75.8179 106.408 74.7571 106.349 73.4045Z" fill="#F8D8D0"/>
<path d="M124.58 74.2333C124.846 72.5426 127.179 67.4636 129.24 66.2303C133.542 67.9742 167.571 82.1766 167.565 87.2026C167.558 93.1236 140.976 109.58 119.074 116.277C97.9641 122.729 96.7739 100.139 109.374 96.3394C124.254 91.8505 136.528 88.9663 144.553 86.2743C139.879 83.821 124.573 74.24 124.573 74.24L124.58 74.2333Z" fill="#FCBA06"/>
<path d="M137.964 82.4552L144.56 86.2677C147.731 85.4323 152.718 84.3117 152.106 83.8078C151.494 83.2973 142.951 84.0465 137.964 82.4552Z" fill="#ED9F00"/>
<path d="M123.17 70.885C118.217 71.873 117.259 68.2527 115.77 66.5686C114.773 65.448 110.198 65.8459 114.36 64.6325C119.008 63.2799 123.17 70.885 123.17 70.885Z" fill="#F0C9C0"/>
<defs>
<linearGradient id="paint0_linear_281_940" x1="214.772" y1="393.723" x2="214.772" y2="88.2922" gradientUnits="userSpaceOnUse">
<stop stop-color="white"/>
<stop offset="1" stop-color="#F1F5FF"/>
</linearGradient>
<linearGradient id="paint1_linear_281_940" x1="168.042" y1="115.702" x2="168.042" y2="35.1104" gradientUnits="userSpaceOnUse">
<stop stop-color="#F6F6FB"/>
<stop offset="1" stop-color="#E3EBFF"/>
</linearGradient>
</defs>
</svg>
